<svg width="17" height="11" viewBox="0 0 17 11" xmlns="http://www.w3.org/2000/svg">
  <g fill="#fff" fill-rule="nonzero">
    <path d="M8.25 4.583L15.583.021C15.503.008 15.423 0 15.34 0H1.16C1.077 0 .996.009.917.02L8.25 4.584z"/>
    <path d="M8.691 6.06l-.03.016-.03.017a.8.8 0 0 1-.17.07l-.018.004a.8.8 0 0 1-.192.026H8.25a.788.788 0 0 1-.192-.026l-.018-.004a.824.824 0 0 1-.201-.087c-.01-.006-.02-.01-.03-.017L.023.917A1.67 1.67 0 0 0 0 1.184v8.253C0 10.3.66 11 1.476 11h13.548c.815 0 1.476-.7 1.476-1.563V1.184c0-.092-.009-.18-.023-.267L8.69 6.059z"/>
  </g>
</svg>